<?xml version="1.0" encoding="UTF-8" standalone="no"?>
<!DOCTYPE svg PUBLIC "-//W3C//DTD SVG 1.1//EN" "http://www.w3.org/Graphics/SVG/1.1/DTD/svg11.dtd">
<svg width="100%" height="100%" viewBox="0 0 1000 1000" version="1.1" xmlns="http://www.w3.org/2000/svg" xmlns:xlink="http://www.w3.org/1999/xlink" xml:space="preserve" xmlns:serif="http://www.serif.com/" style="fill-rule:evenodd;clip-rule:evenodd;stroke-linejoin:round;stroke-miterlimit:2;">
    <g transform="matrix(6.12323e-17,-1,1,6.12323e-17,-54.0013,1000)">
        <path d="M500,121.722C366.361,121.722 257.862,303.321 257.862,526.999C257.862,750.677 366.361,932.275 500,932.275C633.639,932.275 742.138,750.677 742.138,526.999C742.138,303.321 633.639,121.722 500,121.722C738.581,121.722 932.279,303.321 932.279,526.999C932.279,750.677 738.581,932.275 500,932.275C261.419,932.275 67.721,750.677 67.721,526.999C67.721,303.321 261.419,121.722 500,121.722Z" style="fill:rgb(64,64,64);"/>
    </g>
</svg>
